<?xml version="1.0" encoding="utf-8"?>
<!-- Generator: Adobe Illustrator 20.0.0, SVG Export Plug-In . SVG Version: 6.00 Build 0)  -->
<!DOCTYPE svg PUBLIC "-//W3C//DTD SVG 1.1//EN" "http://www.w3.org/Graphics/SVG/1.1/DTD/svg11.dtd">
<svg version="1.1" id="Layer_1" xmlns="http://www.w3.org/2000/svg" xmlns:xlink="http://www.w3.org/1999/xlink" x="0px" y="0px"
	 viewBox="0 0 70 70" style="enable-background:new 0 0 70 70;" xml:space="preserve">
<style type="text/css">
	.st0{fill:#FFFFFF;}
</style>
<g>
	<path class="st0" d="M35,69.5C16,69.5,0.5,54,0.5,35S16,0.5,35,0.5C54,0.5,69.5,16,69.5,35S54,69.5,35,69.5z M35,4.6
		C18.3,4.6,4.6,18.3,4.6,35S18.3,65.4,35,65.4c16.7,0,30.4-13.6,30.4-30.4S51.7,4.6,35,4.6z"/>
	<g>
		<g>
			<path class="st0" d="M60.6,36.2c-7.8-7.5-16.4-11.3-25.5-11.3l-0.2,0l-0.2,0c-9.1,0-17.7,3.8-25.5,11.3c-0.3,0.3-0.4,0.6-0.4,1
				c0,0.4,0.2,0.7,0.4,1c7.8,7.5,16.4,11.3,25.5,11.3l0.2,0l0.2,0h0c9.1,0,17.7-3.8,25.5-11.3c0.3-0.3,0.4-0.6,0.4-1
				C61.1,36.8,60.9,36.5,60.6,36.2z M12.3,37.2c4.5-4.1,9.3-6.9,14.2-8.4C24.4,31,23,33.9,23,37.2c0,3.3,1.3,6.2,3.4,8.4
				C21.5,44.1,16.8,41.3,12.3,37.2z M35,46.4c-5.1,0-9.2-4.1-9.2-9.2c0-5.1,4.1-9.2,9.2-9.2c5.1,0,9.2,4.1,9.2,9.2
				C44.2,42.3,40.1,46.4,35,46.4z M43.5,45.6c2.1-2.2,3.4-5.1,3.4-8.4c0-3.3-1.3-6.2-3.4-8.4c4.9,1.5,9.7,4.3,14.2,8.4
				C53.2,41.3,48.5,44.1,43.5,45.6z"/>
			<path class="st0" d="M39.9,34.8c0,1.4-1.1,2.4-2.4,2.4c-1.4,0-2.4-1.1-2.4-2.4c0-1.4,1.1-2.4,2.4-2.4c0,0,0,0,0,0
				c-0.7-0.4-1.6-0.6-2.5-0.6c-3,0-5.5,2.5-5.5,5.5c0,3,2.5,5.5,5.5,5.5c3,0,5.5-2.5,5.5-5.5C40.5,36.3,40.3,35.5,39.9,34.8
				C39.9,34.7,39.9,34.7,39.9,34.8z"/>
		</g>
		<path class="st0" d="M51.6,22.3c-0.1,0.4-0.5,0.8-0.9,0.9l-2.4,0.4c-0.4,0.1-0.4,0.2,0,0.3l2.4,0.4c0.4,0.1,0.8,0.5,0.9,0.9
			l0.4,2.4c0.1,0.4,0.2,0.4,0.3,0l0.4-2.4c0.1-0.4,0.5-0.8,0.9-0.9l2.4-0.4c0.4-0.1,0.4-0.2,0-0.3l-2.4-0.4
			c-0.4-0.1-0.8-0.5-0.9-0.9l-0.4-2.4c-0.1-0.4-0.2-0.4-0.3,0L51.6,22.3z"/>
		<path class="st0" d="M44.9,20.6c0,0.2-0.3,0.4-0.5,0.5l-1.3,0.2c-0.2,0-0.2,0.1,0,0.1l1.3,0.2c0.2,0,0.4,0.3,0.5,0.5l0.2,1.3
			c0,0.2,0.1,0.2,0.1,0l0.2-1.3c0-0.2,0.3-0.4,0.5-0.5l1.3-0.2c0.2,0,0.2-0.1,0-0.1L46,21.1c-0.2,0-0.4-0.3-0.5-0.5l-0.2-1.3
			c0-0.2-0.1-0.2-0.1,0L44.9,20.6z"/>
	</g>
</g>
</svg>
