<?xml version="1.0" encoding="utf-8"?>
<!-- Generator: Adobe Illustrator 20.0.0, SVG Export Plug-In . SVG Version: 6.00 Build 0)  -->
<!DOCTYPE svg PUBLIC "-//W3C//DTD SVG 1.1//EN" "http://www.w3.org/Graphics/SVG/1.1/DTD/svg11.dtd">
<svg version="1.1" id="Layer_1" xmlns="http://www.w3.org/2000/svg" xmlns:xlink="http://www.w3.org/1999/xlink" x="0px" y="0px"
	 viewBox="0 0 70 70" style="enable-background:new 0 0 70 70;" xml:space="preserve">
<style type="text/css">
	.st0{fill:#FFFFFF;}
</style>
<g>
	<path d="M35,69.5C16,69.5,0.5,54,0.5,35S16,0.5,35,0.5C54,0.5,69.5,16,69.5,35S54,69.5,35,69.5z M35,4.6C18.3,4.6,4.6,18.3,4.6,35
		S18.3,65.4,35,65.4c16.7,0,30.4-13.6,30.4-30.4S51.7,4.6,35,4.6z"/>
	<g>
		<g>
			<polygon points="26,25.6 26,25.6 19.1,34 22.6,33.4 18.7,44 15.7,37 18.2,45.9 20.2,45.9 24.5,33.9 26.9,35.8 			"/>
		</g>
		<g>
			<polygon points="39.9,20.6 39.9,20.6 31.9,30.2 36,29.5 31.5,41.6 28.1,33.6 30.9,43.9 33.1,43.9 38.1,30.1 40.9,32.3 			"/>
		</g>
		<g>
			<polygon points="55.9,16.4 55.9,16.4 46.8,27.4 51.4,26.6 46.2,40.6 42.3,31.4 45.6,43.1 48.2,43.1 53.9,27.3 57.1,29.8 			"/>
		</g>
		<g>
			<polygon points="31,38.3 31.4,39.2 31.8,38.1 31.3,38.2 			"/>
			<polygon points="36.2,40.7 37.1,40.6 38.7,39.8 38.6,39.5 36.4,39 35.8,39 35.3,40.5 			"/>
			<polygon points="40.3,41.6 41.2,41.5 42.8,40.7 42.7,40.3 40.5,39.9 39.5,39.9 37.9,40.8 38,41.1 			"/>
			<polygon points="42,41.7 42.1,42 44.4,42.5 44.5,42.5 44,40.8 43.6,40.8 			"/>
			<polygon points="51,42.4 50.9,42.1 49.6,41.8 49,43.3 49.4,43.3 			"/>
			<polygon points="50.3,43.8 52.6,44.3 53.5,44.2 55.1,43.3 55,43 52.8,42.5 51.8,42.6 50.2,43.5 			"/>
			<polygon points="28.4,39.7 26.7,40.6 26.9,40.9 29.1,41.4 29.3,41.4 28.8,39.7 			"/>
			<polygon points="35.8,41.3 35.6,41 35.2,40.9 34.8,41.8 			"/>
			<polygon points="38.2,43.1 39.9,42.2 39.7,41.9 37.5,41.4 36.6,41.5 34.9,42.4 35.1,42.7 37.3,43.2 			"/>
			<polygon points="40.7,42.4 39,43.3 39.2,43.6 41.4,44.1 42.3,44 44,43.1 43.8,42.8 41.6,42.3 			"/>
			<polygon points="43.3,44.5 45.5,44.9 46.4,44.9 48,44 45.6,44 44.9,44 44.8,43.4 44.7,43.3 43.1,44.1 			"/>
			<polygon points="49.8,44.1 48.9,44.2 47.2,45 47.4,45.3 49.6,45.8 50.5,45.7 52.2,44.9 52,44.6 			"/>
			<polygon points="27.1,42.9 28.7,42 28.6,41.7 26.3,41.2 25.4,41.3 23.8,42.2 23.9,42.5 26.1,43 			"/>
			<polygon points="29.5,42.2 27.9,43 28,43.4 30,43.8 29.5,42.2 			"/>
			<polygon points="33.8,44.6 34.3,44.7 35.3,44.6 36.9,43.8 36.8,43.5 34.5,43 34.4,43 34,44.2 			"/>
			<polygon points="38.4,45.6 39.4,45.5 41,44.7 40.9,44.4 38.6,43.9 37.7,44 36.1,44.8 36.2,45.1 			"/>
			<polygon points="41.8,44.8 40.2,45.7 40.3,46 42.5,46.5 43.5,46.4 45.1,45.6 45,45.2 42.7,44.8 			"/>
			<polygon points="46.8,45.6 45.9,45.7 44.3,46.6 44.4,46.9 46.6,47.4 47.6,47.3 49.2,46.4 49.1,46.1 			"/>
			<polygon points="23.2,44.5 24.1,44.4 25.7,43.6 25.6,43.3 23.4,42.8 22.4,42.9 22.1,43 21.7,44.2 			"/>
			<polygon points="27.3,45.4 28.2,45.3 29.8,44.5 29.7,44.1 27.5,43.7 26.5,43.7 24.9,44.6 25,44.9 			"/>
			<polygon points="30.4,44.7 29,45.5 29.1,45.8 31.4,46.3 32.3,46.2 33.9,45.3 33.8,45 32.5,44.7 30.9,44.7 			"/>
			<polygon points="35.5,47.2 36.4,47.1 38,46.2 37.9,45.9 35.7,45.4 34.7,45.5 33.1,46.4 33.2,46.7 			"/>
			<polygon points="40.5,48 42.1,47.1 42,46.8 39.8,46.3 38.8,46.4 37.2,47.3 37.3,47.6 39.6,48.1 			"/>
			<polygon points="43.9,47.2 42.9,47.3 41.3,48.2 41.4,48.5 43.7,49 44.6,48.9 46.2,48 46.1,47.7 			"/>
			<polygon points="21.1,46 22.8,45.1 22.6,44.8 21.6,44.6 21.1,46 			"/>
			<polygon points="24.3,47 25.2,46.9 26.9,46 26.7,45.7 24.5,45.2 23.6,45.3 21.9,46.2 22.1,46.5 			"/>
			<polygon points="27.7,46.2 26,47.1 26.2,47.4 28.4,47.9 29.3,47.8 31,46.9 30.8,46.6 28.6,46.1 			"/>
			<polygon points="30.3,48.3 32.5,48.7 33.4,48.7 35.1,47.8 34.9,47.5 32.7,47 31.8,47.1 30.1,47.9 			"/>
			<polygon points="35.9,48 34.2,48.8 34.4,49.1 36.6,49.6 37.5,49.5 39.2,48.7 39,48.4 36.8,47.9 			"/>
			<polygon points="40.9,48.8 40,48.9 38.3,49.7 38.5,50 40.7,50.5 41.6,50.4 43.3,49.6 43.1,49.2 			"/>
			<polygon points="17.6,46.8 17.4,46.1 17.3,45.9 16.5,46 14.9,46.9 15,47.2 17.2,47.7 18.2,47.6 19.6,46.8 18.2,46.8 			"/>
			<polygon points="23.8,47.3 21.5,46.8 20.6,46.9 19,47.7 19.1,48.1 21.3,48.5 22.3,48.4 23.9,47.6 			"/>
			<polygon points="27.9,48.2 25.6,47.7 24.7,47.8 23.1,48.6 23.2,48.9 25.4,49.4 26.4,49.3 28,48.5 			"/>
			<polygon points="32,49 29.7,48.6 28.8,48.6 27.2,49.5 27.3,49.8 29.5,50.3 30.5,50.2 32.1,49.4 			"/>
			<polygon points="36.1,49.9 33.8,49.4 32.9,49.5 31.3,50.4 31.4,50.7 33.6,51.2 34.6,51.1 36.2,50.2 			"/>
			<polygon points="37.9,50.3 37,50.4 35.4,51.3 35.5,51.6 37.7,52.1 38.7,52 40.3,51.1 40.2,50.8 			"/>
			<polygon points="28.4,38 22.9,40.9 22.6,41.9 28.6,38.7 			"/>
			<polygon points="58.6,42.4 50,40.6 49.8,41.1 57.7,42.9 38.5,53 12.3,47.3 17,44.8 16.8,44.1 11.1,47.1 10.3,47.5 11.4,47.7 
				37.7,53.4 38.8,53.6 39.6,53.2 58.9,43.1 59.7,42.7 			"/>
			<polygon points="31.5,37.2 32.1,37.3 32.3,36.8 32.3,36.8 31.2,36.5 30.4,36.9 30.7,37.6 			"/>
			<polygon points="43.6,39.2 36.3,37.6 36.1,38.2 43.8,39.8 			"/>
		</g>
	</g>
</g>
</svg>
