<?xml version="1.0" encoding="utf-8"?>
<!-- Generator: Adobe Illustrator 20.0.0, SVG Export Plug-In . SVG Version: 6.00 Build 0)  -->
<!DOCTYPE svg PUBLIC "-//W3C//DTD SVG 1.1//EN" "http://www.w3.org/Graphics/SVG/1.1/DTD/svg11.dtd">
<svg version="1.1" id="Layer_1" xmlns="http://www.w3.org/2000/svg" xmlns:xlink="http://www.w3.org/1999/xlink" x="0px" y="0px"
	 viewBox="0 0 70 70" style="enable-background:new 0 0 70 70;" xml:space="preserve">
<style type="text/css">
	.st0{fill:#FFFFFF;}
</style>
<g>
	<path d="M35,69.5C16,69.5,0.5,54,0.5,35S16,0.5,35,0.5C54,0.5,69.5,16,69.5,35S54,69.5,35,69.5z M35,4.6C18.3,4.6,4.6,18.3,4.6,35
		S18.3,65.4,35,65.4c16.7,0,30.4-13.6,30.4-30.4S51.7,4.6,35,4.6z"/>
	<g>
		<polygon points="33,24.7 35,23.6 37,24.7 36.6,22.5 38.3,20.9 36,20.5 35,18.5 34,20.5 31.7,20.9 33.4,22.5 		"/>
		<polygon points="40.2,24.8 41.1,24.3 42,24.8 41.8,23.8 42.5,23.1 41.6,22.9 41.1,22 40.7,22.9 39.7,23.1 40.4,23.8 		"/>
		<polygon points="28,24.8 28.9,24.3 29.8,24.8 29.6,23.8 30.3,23.1 29.3,22.9 28.9,22 28.4,22.9 27.5,23.1 28.2,23.8 		"/>
		<polygon points="40.8,39.5 40.3,42.4 41.3,42.4 40.8,39.5 		"/>
		<path d="M61,32.2H50.5l4.7,3.4H14.8l4.7-3.4H9l2.3,5.1L9,42.4h5.3v5.1h41.8v-5.1h5l-2.3-5.1L61,32.2z M31.2,42.6
			c0,1.9-0.8,2.5-2.3,2.5c-1.5,0-2.3-0.6-2.3-2.5v-4.5h1.8v4.9c0,0.7,0.2,0.8,0.5,0.8c0.3,0,0.5-0.2,0.5-0.8v-4.9h1.8V42.6z
			 M34.8,45.1c-1.5,0-2.3-0.5-2.3-1.9v-0.2h1.7v0.2c0,0.6,0.2,0.8,0.6,0.8c0.4,0,0.6-0.3,0.6-0.7c0-1.4-2.8-0.7-2.8-3.1
			c0-1.4,0.7-2.1,2.2-2.1c1.6,0,2.2,0.6,2.2,2.1h-1.7v-0.2c0-0.4-0.2-0.7-0.5-0.7c-0.4,0-0.6,0.3-0.6,0.6c0,1.4,2.9,0.7,2.9,3.2
			C37.2,44.5,36.4,45.1,34.8,45.1z M41.7,45l-0.2-1.2h-1.4L39.9,45H38l1.7-6.9H42l1.7,6.9H41.7z"/>
		<path d="M23,28.8c0-0.9-0.1-1.7-1.1-1.7h-1.3v3.4h1.3C23,30.5,23,29.7,23,28.8z M21.5,29.8v-2.1h0.2c0.3,0,0.4,0.1,0.4,1.1
			s0,1.1-0.4,1.1H21.5z"/>
		<polygon points="25.6,29.7 24.4,29.7 24.4,29.1 25.4,29.1 25.4,28.4 24.4,28.4 24.4,27.8 25.5,27.8 25.5,27.1 23.5,27.1 
			23.5,30.5 25.6,30.5 		"/>
		<polygon points="27.6,30.5 28.3,27.1 27.4,27.1 27,29.6 27,29.6 26.7,27.1 25.7,27.1 26.5,30.5 		"/>
		<polygon points="30.6,27.8 30.6,27.1 28.6,27.1 28.6,30.5 30.6,30.5 30.6,29.7 29.5,29.7 29.5,29.1 30.5,29.1 30.5,28.4 
			29.5,28.4 29.5,27.8 		"/>
		<polygon points="33.1,29.7 32,29.7 32,27.1 31.1,27.1 31.1,30.5 33.1,30.5 		"/>
		<path d="M33.3,28.8c0,1.3,0.3,1.8,1.2,1.8s1.2-0.5,1.2-1.8S35.4,27,34.5,27S33.3,27.5,33.3,28.8z M34.8,28.8c0,0.9,0,1.2-0.3,1.2
			s-0.3-0.2-0.3-1.2s0-1.2,0.3-1.2S34.8,27.9,34.8,28.8z"/>
		<path d="M37.5,27.1h-1.3v3.4H37v-1.3h0.3c0.7,0,1.1-0.4,1.1-1.1C38.4,27.5,38.1,27.1,37.5,27.1z M37.2,28.5H37v-0.8h0.2
			c0.2,0,0.3,0.1,0.3,0.4C37.5,28.4,37.4,28.5,37.2,28.5z"/>
		<polygon points="40.9,29.7 39.7,29.7 39.7,29.1 40.8,29.1 40.8,28.4 39.7,28.4 39.7,27.8 40.8,27.8 40.8,27.1 38.8,27.1 
			38.8,30.5 40.9,30.5 		"/>
		<path d="M41.3,30.5h1.3c1,0,1.1-0.8,1.1-1.7s-0.1-1.7-1.1-1.7h-1.3V30.5z M42.2,27.7h0.2c0.3,0,0.4,0.1,0.4,1.1s0,1.1-0.4,1.1
			h-0.2V27.7z"/>
		<rect x="45.5" y="27.1" width="0.9" height="3.4"/>
		<polygon points="47.7,28.4 47.7,28.4 48.3,30.5 49.3,30.5 49.3,27.1 48.4,27.1 48.4,29.2 48.4,29.2 47.9,27.1 46.9,27.1 
			46.9,30.5 47.7,30.5 		"/>
	</g>
</g>
</svg>
