<?xml version="1.0" encoding="utf-8"?>
<!-- Generator: Adobe Illustrator 20.0.0, SVG Export Plug-In . SVG Version: 6.00 Build 0)  -->
<!DOCTYPE svg PUBLIC "-//W3C//DTD SVG 1.1//EN" "http://www.w3.org/Graphics/SVG/1.1/DTD/svg11.dtd">
<svg version="1.1" id="Layer_1" xmlns="http://www.w3.org/2000/svg" xmlns:xlink="http://www.w3.org/1999/xlink" x="0px" y="0px"
	 viewBox="0 0 70 70" style="enable-background:new 0 0 70 70;" xml:space="preserve">
<style type="text/css">
	.st0{fill:#FFFFFF;}
</style>
<g>
	<path d="M35,69.5C16,69.5,0.5,54,0.5,35S16,0.5,35,0.5C54,0.5,69.5,16,69.5,35S54,69.5,35,69.5z M35,4.6C18.3,4.6,4.6,18.3,4.6,35
		S18.3,65.4,35,65.4c16.7,0,30.4-13.6,30.4-30.4S51.7,4.6,35,4.6z"/>
	<g>
		<path d="M50.9,23.8L37.5,14l-2.2-1.6L33.1,14l-14,9.8L17.4,25l0.1,2.1C17.6,28,19,49.6,33.4,56.7l1.7,0.8l1.7-0.9
			C51.3,49,52.4,27.9,52.5,27l0.1-2L50.9,23.8z M50.6,26.9c0,0.9-1.1,21-14.7,28.1l-0.8,0.4L34.2,55c-13.4-6.6-14.7-27.2-14.8-28.1
			l-0.1-1l0.9-0.6l14-9.8l1.1-0.8l1.1,0.8l13.5,9.8l0.8,0.6L50.6,26.9z"/>
		<path d="M40.2,43.4l5.4-2.9c0.5-1.2,0.9-2.3,1.2-3.5L39,41.2L40.2,43.4z"/>
		<path d="M21.3,26.8c0,0,1.2,20.3,13.7,26.5c3.6-1.9,6.3-4.9,8.3-8.1l-1.7,0.9l0,0l-2.7,1.4l0,0l0,0l-1.4-2.7l0,0l-1.2-2.2
			l-2.2,1.2l0,0l-2.7,1.4l0,0l0,0L30,42.6l0,0l-3.9-7.2l-1.3,0.7l0.4-5.5l4.8,2.7L28.8,34l3.9,7.2l2.2-1.2l-1.2-2.3l-1.3,0.7
			l0.4-5.5l4.8,2.7l-1.1,0.6l1.2,2.3L47.9,33c0.7-3.6,0.9-6.2,0.9-6.2L35.3,17L21.3,26.8z M34.7,27.8c0,2-0.8,2.6-2.4,2.6
			c-1.5,0-2.4-0.6-2.4-2.6v-4.6h1.8v5.1c0,0.7,0.2,0.9,0.6,0.9c0.3,0,0.6-0.2,0.6-0.9v-5.1h1.8V27.8z M37.6,23.2l0.7,5.3h0l0.7-5.3
			h1.9l-1.5,7h-2.4l-1.5-7H37.6z"/>
		<polygon points="45.6,40.5 45.6,40.5 45.6,40.5 		"/>
		<polygon points="46.8,37 46.8,37 46.8,37 		"/>
	</g>
</g>
</svg>
